<svg width="35" height="42" viewBox="0 0 35 42" fill="none" xmlns="http://www.w3.org/2000/svg">
<path d="M17.0889 0C11.793 0 7.49915 4.3004 7.49915 9.60385C7.49915 13.3518 12.2837 21.7695 15.0936 26.3906C16.0046 27.8876 18.1721 27.8876 19.0831 26.3906C21.893 21.7695 26.6776 13.3518 26.6776 9.60385C26.6776 4.3004 22.3837 0 17.0889 0ZM17.0889 15.541C13.9335 15.541 11.376 12.9792 11.376 9.81942C11.376 6.65965 13.9335 4.09783 17.0889 4.09783C20.2433 4.09783 22.8008 6.65965 22.8008 9.81942C22.8008 12.9792 20.2433 15.541 17.0889 15.541Z" fill="#5E17EB"/>
<path d="M34.141 38.2162L31.2781 20.2C31.0517 18.7799 29.8309 17.7357 28.3945 17.7357H25.2207C24.8665 18.4777 24.4928 19.2284 24.1071 19.978H26.2703C27.4359 19.978 28.4292 20.8262 28.6112 21.9787L29.2936 26.2672H28.2396C25.9009 26.2672 23.6706 25.5577 21.7901 24.2448C21.4207 24.8958 21.0557 25.5273 20.7026 26.1296C20.9062 26.2683 21.1131 26.4004 21.3232 26.5282L16.608 32.0115L16.0469 31.1471C15.0026 29.5428 13.237 28.5842 11.3251 28.5842H8.52497L12.8784 25.1027C12.5231 24.4864 12.1603 23.8473 11.7963 23.1952L5.05757 28.5842H4.51705L5.56669 21.9787C5.75084 20.8262 6.74307 19.978 7.90862 19.978H10.0718C9.68619 19.2284 9.31139 18.4777 8.95826 17.7357H5.78333C4.34806 17.7357 3.12727 18.781 2.90088 20.2L0.0368346 38.2162C-0.244803 39.9916 1.12439 41.5991 2.92037 41.5991H31.2586C33.0524 41.5991 34.4227 39.9916 34.141 38.2162ZM23.3283 27.5129C24.8719 28.1173 26.5325 28.4336 28.2385 28.4336H29.637L30.3487 32.9084H18.6899L23.3283 27.5129ZM5.58185 39.3568C4.12275 39.3568 3.01137 38.0516 3.24101 36.6098L4.17258 30.7506H11.324C12.5026 30.7506 13.5901 31.341 14.2325 32.33L18.8058 39.3568H5.58185ZM28.5949 39.3568H21.3861L18.6011 35.076H30.692L30.9358 36.6098C31.1654 38.0516 30.054 39.3568 28.5949 39.3568Z" fill="#5E17EB"/>
<path d="M17.91 0C12.6141 0 8.32129 4.3004 8.32129 9.60385C8.32129 13.3518 13.1059 21.7695 15.9158 26.3906C16.8257 27.8876 18.9943 27.8876 19.9042 26.3906C22.7141 21.7695 27.4987 13.3518 27.4987 9.60385C27.4987 4.3004 23.2059 0 17.91 0ZM17.91 15.541C14.7556 15.541 12.1981 12.9792 12.1981 9.81942C12.1981 6.65965 14.7556 4.09783 17.91 4.09783C21.0654 4.09783 23.6229 6.65965 23.6229 9.81942C23.6229 12.9792 21.0654 15.541 17.91 15.541Z" fill="#3B0F94"/>
<path d="M34.9632 38.2162L32.1002 20.2C31.8738 18.7799 30.653 17.7357 29.2167 17.7357H26.0417C25.6886 18.4777 25.3149 19.2284 24.9282 19.978H27.0925C28.258 19.978 29.2513 20.8262 29.4333 21.9787L30.1157 26.2672H29.0618C26.7231 26.2672 24.4927 25.5577 22.6123 24.2448C22.2429 24.8958 21.8778 25.5273 21.5247 26.1296C21.7284 26.2683 21.9352 26.4004 22.1443 26.5282L17.4301 32.0115L16.869 31.1471C15.8248 29.5428 14.0591 28.5842 12.1472 28.5842H9.34711L13.7006 25.1027C13.3453 24.4864 12.9824 23.8473 12.6174 23.1952L5.87972 28.5842H5.33919L6.38883 21.9787C6.57298 20.8262 7.56413 19.978 8.73076 19.978H10.894C10.5083 19.2284 10.1335 18.4777 9.7804 17.7357H6.60548C5.17021 17.7357 3.94833 18.781 3.72302 20.2L0.858978 38.2162C0.57734 39.9916 1.94653 41.5991 3.74252 41.5991H32.0807C33.8745 41.5991 35.2448 39.9916 34.9632 38.2162ZM24.1504 27.5129C25.694 28.1173 27.3546 28.4336 29.0607 28.4336H30.4591L31.1708 32.9084H19.5121L24.1504 27.5129ZM6.404 39.3568C4.9449 39.3568 3.83351 38.0516 4.06315 36.6098L4.99364 30.7506H12.1462C13.3247 30.7506 14.4123 31.341 15.0546 32.33L19.628 39.3568H6.404ZM29.4171 39.3568H22.2082L19.4233 35.076H31.5142L31.7579 36.6098C31.9876 38.0516 30.8751 39.3568 29.4171 39.3568Z" fill="#3B0F94"/>
</svg>
